STARTFONT 2.1
FONT -FontForge-BritishRailLightNormal-Book-R-Normal--7-70-75-75-P-51-ISO10646-1
SIZE 7 75 75
FONTBOUNDINGBOX 10 7 0 -2
COMMENT "Generated by fontforge, http://fontforge.sourceforge.net"
COMMENT "British Rail"
STARTPROPERTIES 39
FOUNDRY "FontForge"
FAMILY_NAME "BritishRailLightNormal"
WEIGHT_NAME "Book"
SLANT "R"
SETWIDTH_NAME "Normal"
ADD_STYLE_NAME ""
PIXEL_SIZE 7
POINT_SIZE 70
RESOLUTION_X 75
RESOLUTION_Y 75
SPACING "P"
AVERAGE_WIDTH 51
CHARSET_REGISTRY "ISO10646"
CHARSET_ENCODING "1"
FONTNAME_REGISTRY ""
CHARSET_COLLECTIONS "ISO10646-1"
FONT_NAME "BritishRailLightNormal"
FACE_NAME "BritishRailLightNormal"
COPYRIGHT "British Rail"
FONT_VERSION "Macromedia Fontographer 4.1.5 19/7/01"
FONT_ASCENT 6
FONT_DESCENT 1
UNDERLINE_POSITION 0
UNDERLINE_THICKNESS 0
X_HEIGHT 3
CAP_HEIGHT 4
RAW_ASCENT 800
RAW_DESCENT 200
NORM_SPACE 1
RELATIVE_WEIGHT 40
RELATIVE_SETWIDTH 50
SUPERSCRIPT_X 0
SUPERSCRIPT_Y 3
SUPERSCRIPT_SIZE 4
SUBSCRIPT_X 0
SUBSCRIPT_Y 1
SUBSCRIPT_SIZE 4
AVG_LOWERCASE_WIDTH 46
AVG_UPPERCASE_WIDTH 43
ENDPROPERTIES
CHARS 164
STARTCHAR space
ENCODING 32
SWIDTH 199 0
DWIDTH 1 0
BBX 1 1 0 0
BITMAP
00
ENDCHAR
STARTCHAR exclam
ENCODING 33
SWIDTH 256 0
DWIDTH 2 0
BBX 1 5 1 0
BITMAP
80
80
80
80
80
ENDCHAR
STARTCHAR numbersign
ENCODING 35
SWIDTH 1002 0
DWIDTH 7 0
BBX 7 7 0 -2
BITMAP
FE
BE
A6
AE
DE
F6
FE
ENDCHAR
STARTCHAR dollar
ENCODING 36
SWIDTH 1295 0
DWIDTH 9 0
BBX 7 7 1 -2
BITMAP
38
36
6A
64
44
E8
38
ENDCHAR
STARTCHAR percent
ENCODING 37
SWIDTH 1296 0
DWIDTH 9 0
BBX 5 7 2 -2
BITMAP
C0
C0
80
40
40
38
18
ENDCHAR
STARTCHAR ampersand
ENCODING 38
SWIDTH 601 0
DWIDTH 4 0
BBX 4 5 0 0
BITMAP
60
A0
C0
B0
F0
ENDCHAR
STARTCHAR parenleft
ENCODING 40
SWIDTH 338 0
DWIDTH 2 0
BBX 2 6 0 -1
BITMAP
40
80
80
80
80
40
ENDCHAR
STARTCHAR parenright
ENCODING 41
SWIDTH 338 0
DWIDTH 2 0
BBX 2 6 0 -1
BITMAP
80
40
40
40
40
80
ENDCHAR
STARTCHAR asterisk
ENCODING 42
SWIDTH 1295 0
DWIDTH 9 0
BBX 7 7 1 -2
BITMAP
30
00
F8
3E
E8
CC
CC
ENDCHAR
STARTCHAR plus
ENCODING 43
SWIDTH 1296 0
DWIDTH 9 0
BBX 7 7 1 -2
BITMAP
28
30
FE
7A
30
6C
64
ENDCHAR
STARTCHAR comma
ENCODING 44
SWIDTH 167 0
DWIDTH 1 0
BBX 1 2 0 -1
BITMAP
80
80
ENDCHAR
STARTCHAR hyphen
ENCODING 45
SWIDTH 272 0
DWIDTH 2 0
BBX 1 1 0 1
BITMAP
80
ENDCHAR
STARTCHAR period
ENCODING 46
SWIDTH 165 0
DWIDTH 1 0
BBX 1 1 0 0
BITMAP
80
ENDCHAR
STARTCHAR slash
ENCODING 47
SWIDTH 314 0
DWIDTH 2 0
BBX 2 5 0 0
BITMAP
40
40
80
80
80
ENDCHAR
STARTCHAR zero
ENCODING 48
SWIDTH 616 0
DWIDTH 4 0
BBX 4 5 0 0
BITMAP
60
90
90
90
60
ENDCHAR
STARTCHAR one
ENCODING 49
SWIDTH 305 0
DWIDTH 2 0
BBX 2 5 0 0
BITMAP
40
C0
40
40
40
ENDCHAR
STARTCHAR two
ENCODING 50
SWIDTH 546 0
DWIDTH 4 0
BBX 3 5 0 0
BITMAP
E0
A0
20
40
E0
ENDCHAR
STARTCHAR three
ENCODING 51
SWIDTH 574 0
DWIDTH 4 0
BBX 4 5 0 0
BITMAP
60
A0
60
10
E0
ENDCHAR
STARTCHAR four
ENCODING 52
SWIDTH 600 0
DWIDTH 4 0
BBX 4 5 0 0
BITMAP
20
60
A0
F0
20
ENDCHAR
STARTCHAR five
ENCODING 53
SWIDTH 564 0
DWIDTH 4 0
BBX 3 5 0 0
BITMAP
E0
80
E0
20
E0
ENDCHAR
STARTCHAR six
ENCODING 54
SWIDTH 568 0
DWIDTH 4 0
BBX 3 5 0 0
BITMAP
60
80
E0
A0
60
ENDCHAR
STARTCHAR seven
ENCODING 55
SWIDTH 477 0
DWIDTH 3 0
BBX 3 5 0 0
BITMAP
E0
20
20
40
40
ENDCHAR
STARTCHAR eight
ENCODING 56
SWIDTH 565 0
DWIDTH 4 0
BBX 4 5 0 0
BITMAP
E0
A0
E0
90
E0
ENDCHAR
STARTCHAR nine
ENCODING 57
SWIDTH 568 0
DWIDTH 4 0
BBX 3 5 0 0
BITMAP
E0
A0
A0
60
E0
ENDCHAR
STARTCHAR colon
ENCODING 58
SWIDTH 167 0
DWIDTH 1 0
BBX 1 3 0 0
BITMAP
80
00
80
ENDCHAR
STARTCHAR semicolon
ENCODING 59
SWIDTH 167 0
DWIDTH 1 0
BBX 1 2 0 -1
BITMAP
80
80
ENDCHAR
STARTCHAR less
ENCODING 60
SWIDTH 1296 0
DWIDTH 9 0
BBX 3 7 3 -2
BITMAP
40
60
E0
40
E0
40
40
ENDCHAR
STARTCHAR equal
ENCODING 61
SWIDTH 1700 0
DWIDTH 12 0
BBX 8 5 2 -1
BITMAP
18
FF
18
FF
0C
ENDCHAR
STARTCHAR greater
ENCODING 62
SWIDTH 1296 0
DWIDTH 9 0
BBX 4 7 2 -2
BITMAP
60
60
E0
F0
60
60
90
ENDCHAR
STARTCHAR question
ENCODING 63
SWIDTH 542 0
DWIDTH 4 0
BBX 3 5 0 0
BITMAP
E0
A0
20
40
40
ENDCHAR
STARTCHAR at
ENCODING 64
SWIDTH 1296 0
DWIDTH 9 0
BBX 7 7 1 -2
BITMAP
FE
EE
EE
82
EE
FE
FE
ENDCHAR
STARTCHAR A
ENCODING 65
SWIDTH 619 0
DWIDTH 4 0
BBX 4 5 0 0
BITMAP
60
60
60
F0
90
ENDCHAR
STARTCHAR B
ENCODING 66
SWIDTH 618 0
DWIDTH 4 0
BBX 4 5 0 0
BITMAP
E0
A0
E0
90
E0
ENDCHAR
STARTCHAR C
ENCODING 67
SWIDTH 620 0
DWIDTH 4 0
BBX 4 5 0 0
BITMAP
60
90
80
80
70
ENDCHAR
STARTCHAR D
ENCODING 68
SWIDTH 643 0
DWIDTH 5 0
BBX 4 5 0 0
BITMAP
E0
90
90
90
E0
ENDCHAR
STARTCHAR E
ENCODING 69
SWIDTH 557 0
DWIDTH 4 0
BBX 3 5 0 0
BITMAP
E0
80
E0
80
E0
ENDCHAR
STARTCHAR F
ENCODING 70
SWIDTH 539 0
DWIDTH 4 0
BBX 3 5 0 0
BITMAP
E0
80
E0
80
80
ENDCHAR
STARTCHAR G
ENCODING 71
SWIDTH 657 0
DWIDTH 5 0
BBX 4 5 0 0
BITMAP
60
90
80
90
70
ENDCHAR
STARTCHAR H
ENCODING 72
SWIDTH 625 0
DWIDTH 4 0
BBX 4 5 0 0
BITMAP
90
90
F0
90
90
ENDCHAR
STARTCHAR I
ENCODING 73
SWIDTH 240 0
DWIDTH 2 0
BBX 1 5 0 0
BITMAP
80
80
80
80
80
ENDCHAR
STARTCHAR J
ENCODING 74
SWIDTH 320 0
DWIDTH 2 0
BBX 2 5 0 0
BITMAP
40
40
40
40
C0
ENDCHAR
STARTCHAR K
ENCODING 75
SWIDTH 584 0
DWIDTH 4 0
BBX 3 5 0 0
BITMAP
A0
C0
C0
A0
A0
ENDCHAR
STARTCHAR L
ENCODING 76
SWIDTH 520 0
DWIDTH 4 0
BBX 3 5 0 0
BITMAP
80
80
80
80
E0
ENDCHAR
STARTCHAR M
ENCODING 77
SWIDTH 757 0
DWIDTH 5 0
BBX 4 5 0 0
BITMAP
90
D0
F0
F0
B0
ENDCHAR
STARTCHAR N
ENCODING 78
SWIDTH 680 0
DWIDTH 5 0
BBX 4 5 0 0
BITMAP
90
D0
D0
B0
90
ENDCHAR
STARTCHAR O
ENCODING 79
SWIDTH 660 0
DWIDTH 5 0
BBX 4 5 0 0
BITMAP
60
90
90
90
60
ENDCHAR
STARTCHAR P
ENCODING 80
SWIDTH 564 0
DWIDTH 4 0
BBX 3 5 0 0
BITMAP
E0
A0
A0
C0
80
ENDCHAR
STARTCHAR Q
ENCODING 81
SWIDTH 668 0
DWIDTH 5 0
BBX 4 6 0 -1
BITMAP
60
90
90
90
70
10
ENDCHAR
STARTCHAR R
ENCODING 82
SWIDTH 581 0
DWIDTH 4 0
BBX 3 5 0 0
BITMAP
E0
A0
E0
A0
A0
ENDCHAR
STARTCHAR S
ENCODING 83
SWIDTH 604 0
DWIDTH 4 0
BBX 4 5 0 0
BITMAP
60
90
60
10
E0
ENDCHAR
STARTCHAR T
ENCODING 84
SWIDTH 493 0
DWIDTH 3 0
BBX 3 5 0 0
BITMAP
E0
40
40
40
40
ENDCHAR
STARTCHAR U
ENCODING 85
SWIDTH 648 0
DWIDTH 5 0
BBX 4 5 0 0
BITMAP
90
90
90
90
60
ENDCHAR
STARTCHAR V
ENCODING 86
SWIDTH 594 0
DWIDTH 4 0
BBX 4 5 0 0
BITMAP
90
90
60
60
60
ENDCHAR
STARTCHAR W
ENCODING 87
SWIDTH 849 0
DWIDTH 6 0
BBX 6 5 0 0
BITMAP
A4
B8
B8
D8
58
ENDCHAR
STARTCHAR X
ENCODING 88
SWIDTH 606 0
DWIDTH 4 0
BBX 4 5 0 0
BITMAP
90
60
60
60
90
ENDCHAR
STARTCHAR Y
ENCODING 89
SWIDTH 569 0
DWIDTH 4 0
BBX 4 5 0 0
BITMAP
90
60
60
40
40
ENDCHAR
STARTCHAR Z
ENCODING 90
SWIDTH 528 0
DWIDTH 4 0
BBX 3 5 0 0
BITMAP
E0
20
40
40
E0
ENDCHAR
STARTCHAR bracketleft
ENCODING 91
SWIDTH 1295 0
DWIDTH 9 0
BBX 6 4 1 0
BITMAP
7C
7C
78
FC
ENDCHAR
STARTCHAR backslash
ENCODING 92
SWIDTH 1295 0
DWIDTH 9 0
BBX 6 6 1 -1
BITMAP
C4
4C
38
30
68
C4
ENDCHAR
STARTCHAR bracketright
ENCODING 93
SWIDTH 1295 0
DWIDTH 9 0
BBX 4 6 2 -1
BITMAP
E0
F0
F0
60
40
40
ENDCHAR
STARTCHAR a
ENCODING 97
SWIDTH 525 0
DWIDTH 4 0
BBX 3 4 0 0
BITMAP
E0
A0
E0
E0
ENDCHAR
STARTCHAR b
ENCODING 98
SWIDTH 555 0
DWIDTH 4 0
BBX 3 5 0 0
BITMAP
80
C0
A0
A0
E0
ENDCHAR
STARTCHAR c
ENCODING 99
SWIDTH 515 0
DWIDTH 4 0
BBX 3 4 0 0
BITMAP
60
A0
80
60
ENDCHAR
STARTCHAR d
ENCODING 100
SWIDTH 555 0
DWIDTH 4 0
BBX 3 5 0 0
BITMAP
20
60
A0
A0
E0
ENDCHAR
STARTCHAR e
ENCODING 101
SWIDTH 534 0
DWIDTH 4 0
BBX 3 4 0 0
BITMAP
E0
A0
C0
60
ENDCHAR
STARTCHAR f
ENCODING 102
SWIDTH 319 0
DWIDTH 2 0
BBX 2 5 0 0
BITMAP
40
C0
80
80
80
ENDCHAR
STARTCHAR g
ENCODING 103
SWIDTH 539 0
DWIDTH 4 0
BBX 3 5 0 -1
BITMAP
E0
A0
A0
60
E0
ENDCHAR
STARTCHAR h
ENCODING 104
SWIDTH 530 0
DWIDTH 4 0
BBX 3 5 0 0
BITMAP
80
E0
A0
A0
A0
ENDCHAR
STARTCHAR i
ENCODING 105
SWIDTH 219 0
DWIDTH 2 0
BBX 1 5 0 0
BITMAP
80
80
80
80
80
ENDCHAR
STARTCHAR j
ENCODING 106
SWIDTH 239 0
DWIDTH 2 0
BBX 1 6 0 -1
BITMAP
80
80
80
80
80
80
ENDCHAR
STARTCHAR k
ENCODING 107
SWIDTH 523 0
DWIDTH 4 0
BBX 3 5 0 0
BITMAP
80
A0
C0
C0
A0
ENDCHAR
STARTCHAR l
ENCODING 108
SWIDTH 218 0
DWIDTH 2 0
BBX 1 5 0 0
BITMAP
80
80
80
80
80
ENDCHAR
STARTCHAR m
ENCODING 109
SWIDTH 788 0
DWIDTH 6 0
BBX 5 4 0 0
BITMAP
D8
A8
A8
A8
ENDCHAR
STARTCHAR n
ENCODING 110
SWIDTH 534 0
DWIDTH 4 0
BBX 3 4 0 0
BITMAP
E0
A0
A0
A0
ENDCHAR
STARTCHAR o
ENCODING 111
SWIDTH 541 0
DWIDTH 4 0
BBX 3 4 0 0
BITMAP
60
A0
A0
E0
ENDCHAR
STARTCHAR p
ENCODING 112
SWIDTH 557 0
DWIDTH 4 0
BBX 3 5 0 -1
BITMAP
E0
A0
A0
E0
80
ENDCHAR
STARTCHAR q
ENCODING 113
SWIDTH 557 0
DWIDTH 4 0
BBX 3 5 0 -1
BITMAP
E0
A0
A0
E0
20
ENDCHAR
STARTCHAR r
ENCODING 114
SWIDTH 345 0
DWIDTH 2 0
BBX 2 4 0 0
BITMAP
C0
80
80
80
ENDCHAR
STARTCHAR s
ENCODING 115
SWIDTH 505 0
DWIDTH 4 0
BBX 3 4 0 0
BITMAP
E0
80
60
E0
ENDCHAR
STARTCHAR t
ENCODING 116
SWIDTH 328 0
DWIDTH 2 0
BBX 2 5 0 0
BITMAP
80
C0
80
80
40
ENDCHAR
STARTCHAR u
ENCODING 117
SWIDTH 531 0
DWIDTH 4 0
BBX 3 4 0 0
BITMAP
A0
A0
A0
E0
ENDCHAR
STARTCHAR v
ENCODING 118
SWIDTH 525 0
DWIDTH 4 0
BBX 3 4 0 0
BITMAP
A0
A0
60
40
ENDCHAR
STARTCHAR w
ENCODING 119
SWIDTH 750 0
DWIDTH 5 0
BBX 5 4 0 0
BITMAP
A8
A8
F0
50
ENDCHAR
STARTCHAR x
ENCODING 120
SWIDTH 508 0
DWIDTH 4 0
BBX 3 4 0 0
BITMAP
A0
40
40
A0
ENDCHAR
STARTCHAR y
ENCODING 121
SWIDTH 501 0
DWIDTH 4 0
BBX 3 5 0 -1
BITMAP
A0
A0
60
40
C0
ENDCHAR
STARTCHAR z
ENCODING 122
SWIDTH 444 0
DWIDTH 3 0
BBX 3 4 0 0
BITMAP
E0
40
40
E0
ENDCHAR
STARTCHAR braceleft
ENCODING 123
SWIDTH 1296 0
DWIDTH 9 0
BBX 6 7 2 -2
BITMAP
60
40
70
F8
88
94
70
ENDCHAR
STARTCHAR braceright
ENCODING 125
SWIDTH 1296 0
DWIDTH 9 0
BBX 6 7 1 -2
BITMAP
08
08
18
3C
44
A4
18
ENDCHAR
STARTCHAR nonbreakingspace
ENCODING 160
SWIDTH 199 0
DWIDTH 1 0
BBX 1 1 0 0
BITMAP
00
ENDCHAR
STARTCHAR exclamdown
ENCODING 161
SWIDTH 993 0
DWIDTH 7 0
BBX 7 7 0 -2
BITMAP
FE
C6
DE
D6
F6
CE
FE
ENDCHAR
STARTCHAR cent
ENCODING 162
SWIDTH 1002 0
DWIDTH 7 0
BBX 7 7 0 -2
BITMAP
FE
BA
8A
AA
B6
DE
FE
ENDCHAR
STARTCHAR sterling
ENCODING 163
SWIDTH 569 0
DWIDTH 4 0
BBX 3 5 0 0
BITMAP
60
A0
C0
80
E0
ENDCHAR
STARTCHAR yen
ENCODING 165
SWIDTH 1296 0
DWIDTH 9 0
BBX 8 4 0 0
BITMAP
FF
D7
FF
7F
ENDCHAR
STARTCHAR section
ENCODING 167
SWIDTH 1295 0
DWIDTH 9 0
BBX 7 6 1 -1
BITMAP
82
FE
FE
DE
FE
FE
ENDCHAR
STARTCHAR copyright
ENCODING 169
SWIDTH 1296 0
DWIDTH 9 0
BBX 5 6 1 -1
BITMAP
08
18
B0
B0
E0
F0
ENDCHAR
STARTCHAR ordfeminine
ENCODING 170
SWIDTH 1296 0
DWIDTH 9 0
BBX 7 7 1 -2
BITMAP
C2
C2
02
06
DE
D6
D0
ENDCHAR
STARTCHAR guillemotleft
ENCODING 171
SWIDTH 445 0
DWIDTH 3 0
BBX 2 3 0 0
BITMAP
C0
C0
80
ENDCHAR
STARTCHAR logicalnot
ENCODING 172
SWIDTH 1296 0
DWIDTH 9 0
BBX 5 6 1 -1
BITMAP
F0
F8
E0
B0
98
08
ENDCHAR
STARTCHAR registered
ENCODING 174
SWIDTH 1296 0
DWIDTH 9 0
BBX 7 6 1 -1
BITMAP
38
6C
44
FE
44
38
ENDCHAR
STARTCHAR mu
ENCODING 181
SWIDTH 1296 0
DWIDTH 9 0
BBX 7 7 1 -2
BITMAP
3E
02
32
F2
22
02
3E
ENDCHAR
STARTCHAR paragraph
ENCODING 182
SWIDTH 1295 0
DWIDTH 9 0
BBX 6 7 1 -2
BITMAP
FC
F4
DC
FC
FC
10
38
ENDCHAR
STARTCHAR periodcentered
ENCODING 183
SWIDTH 261 0
DWIDTH 2 0
BBX 1 1 0 2
BITMAP
80
ENDCHAR
STARTCHAR ordmasculine
ENCODING 186
SWIDTH 1295 0
DWIDTH 9 0
BBX 7 7 1 -2
BITMAP
C6
D2
1E
14
1C
1C
10
ENDCHAR
STARTCHAR guillemotright
ENCODING 187
SWIDTH 445 0
DWIDTH 3 0
BBX 2 3 0 0
BITMAP
C0
C0
C0
ENDCHAR
STARTCHAR Acircumflex
ENCODING 194
SWIDTH 612 0
DWIDTH 4 0
BBX 4 5 0 0
BITMAP
60
60
60
F0
90
ENDCHAR
STARTCHAR Ccedilla
ENCODING 199
SWIDTH 614 0
DWIDTH 4 0
BBX 4 5 0 0
BITMAP
60
90
80
80
70
ENDCHAR
STARTCHAR Egrave
ENCODING 200
SWIDTH 552 0
DWIDTH 4 0
BBX 3 5 0 0
BITMAP
E0
80
E0
80
E0
ENDCHAR
STARTCHAR Eacute
ENCODING 201
SWIDTH 552 0
DWIDTH 4 0
BBX 3 5 0 0
BITMAP
E0
80
E0
80
E0
ENDCHAR
STARTCHAR Ecircumflex
ENCODING 202
SWIDTH 552 0
DWIDTH 4 0
BBX 3 5 0 0
BITMAP
E0
80
E0
80
E0
ENDCHAR
STARTCHAR Igrave
ENCODING 204
SWIDTH 241 0
DWIDTH 2 0
BBX 1 5 0 0
BITMAP
80
80
80
80
80
ENDCHAR
STARTCHAR Ograve
ENCODING 210
SWIDTH 652 0
DWIDTH 5 0
BBX 4 5 0 0
BITMAP
60
90
90
90
60
ENDCHAR
STARTCHAR Ocircumflex
ENCODING 212
SWIDTH 652 0
DWIDTH 5 0
BBX 4 5 0 0
BITMAP
60
90
90
90
60
ENDCHAR
STARTCHAR Ugrave
ENCODING 217
SWIDTH 639 0
DWIDTH 4 0
BBX 4 5 0 0
BITMAP
90
90
90
90
60
ENDCHAR
STARTCHAR germandbls
ENCODING 223
SWIDTH 1296 0
DWIDTH 9 0
BBX 7 5 1 -1
BITMAP
08
FC
FE
0C
18
ENDCHAR
STARTCHAR agrave
ENCODING 224
SWIDTH 523 0
DWIDTH 4 0
BBX 3 4 0 0
BITMAP
60
A0
E0
E0
ENDCHAR
STARTCHAR acircumflex
ENCODING 226
SWIDTH 523 0
DWIDTH 4 0
BBX 3 4 0 0
BITMAP
60
A0
E0
E0
ENDCHAR
STARTCHAR aring
ENCODING 229
SWIDTH 1296 0
DWIDTH 9 0
BBX 7 5 1 -1
BITMAP
30
7E
FE
60
30
ENDCHAR
STARTCHAR ae
ENCODING 230
SWIDTH 875 0
DWIDTH 6 0
BBX 6 4 0 0
BITMAP
F8
A4
F8
F8
ENDCHAR
STARTCHAR ccedilla
ENCODING 231
SWIDTH 510 0
DWIDTH 4 0
BBX 3 4 0 0
BITMAP
60
A0
80
E0
ENDCHAR
STARTCHAR egrave
ENCODING 232
SWIDTH 527 0
DWIDTH 4 0
BBX 3 4 0 0
BITMAP
E0
A0
C0
60
ENDCHAR
STARTCHAR eacute
ENCODING 233
SWIDTH 527 0
DWIDTH 4 0
BBX 3 4 0 0
BITMAP
E0
A0
C0
60
ENDCHAR
STARTCHAR ecircumflex
ENCODING 234
SWIDTH 527 0
DWIDTH 4 0
BBX 3 4 0 0
BITMAP
E0
A0
C0
60
ENDCHAR
STARTCHAR edieresis
ENCODING 235
SWIDTH 527 0
DWIDTH 4 0
BBX 3 4 0 0
BITMAP
E0
A0
C0
60
ENDCHAR
STARTCHAR icircumflex
ENCODING 238
SWIDTH 219 0
DWIDTH 2 0
BBX 1 4 0 0
BITMAP
80
80
80
80
ENDCHAR
STARTCHAR idieresis
ENCODING 239
SWIDTH 219 0
DWIDTH 2 0
BBX 1 4 0 0
BITMAP
80
80
80
80
ENDCHAR
STARTCHAR ocircumflex
ENCODING 244
SWIDTH 534 0
DWIDTH 4 0
BBX 3 4 0 0
BITMAP
60
A0
A0
E0
ENDCHAR
STARTCHAR divide
ENCODING 247
SWIDTH 1296 0
DWIDTH 9 0
BBX 7 7 1 -2
BITMAP
10
92
BA
92
82
82
FE
ENDCHAR
STARTCHAR oslash
ENCODING 248
SWIDTH 1296 0
DWIDTH 9 0
BBX 8 4 0 0
BITMAP
FF
AB
FF
DB
ENDCHAR
STARTCHAR ugrave
ENCODING 249
SWIDTH 524 0
DWIDTH 4 0
BBX 3 4 0 0
BITMAP
A0
A0
A0
E0
ENDCHAR
STARTCHAR ucircumflex
ENCODING 251
SWIDTH 524 0
DWIDTH 4 0
BBX 3 4 0 0
BITMAP
A0
A0
A0
E0
ENDCHAR
STARTCHAR udieresis
ENCODING 252
SWIDTH 524 0
DWIDTH 4 0
BBX 3 4 0 0
BITMAP
A0
A0
A0
E0
ENDCHAR
STARTCHAR oe
ENCODING 339
SWIDTH 909 0
DWIDTH 6 0
BBX 6 4 0 0
BITMAP
78
B4
A8
FC
ENDCHAR
STARTCHAR florin
ENCODING 402
SWIDTH 1296 0
DWIDTH 9 0
BBX 5 7 2 -2
BITMAP
20
20
20
A8
F8
70
20
ENDCHAR
STARTCHAR Delta
ENCODING 916
SWIDTH 1296 0
DWIDTH 9 0
BBX 6 6 1 -1
BITMAP
80
C8
64
34
1C
7C
ENDCHAR
STARTCHAR Omega
ENCODING 937
SWIDTH 1296 0
DWIDTH 9 0
BBX 7 7 1 -2
BITMAP
3E
02
42
FA
42
02
3E
ENDCHAR
STARTCHAR mu.dup1
ENCODING 956
SWIDTH 1296 0
DWIDTH 9 0
BBX 7 7 1 -2
BITMAP
3E
02
32
F2
22
02
3E
ENDCHAR
STARTCHAR pi
ENCODING 960
SWIDTH 1296 0
DWIDTH 9 0
BBX 8 5 0 -1
BITMAP
40
4C
72
FF
FF
ENDCHAR
STARTCHAR hyphen.dup2
ENCODING 8208
SWIDTH 272 0
DWIDTH 2 0
BBX 1 1 0 1
BITMAP
80
ENDCHAR
STARTCHAR endash
ENCODING 8211
SWIDTH 397 0
DWIDTH 3 0
BBX 1 1 1 2
BITMAP
00
ENDCHAR
STARTCHAR emdash
ENCODING 8212
SWIDTH 786 0
DWIDTH 6 0
BBX 2 1 2 2
BITMAP
C0
ENDCHAR
STARTCHAR quoteleft
ENCODING 8216
SWIDTH 166 0
DWIDTH 1 0
BBX 1 1 0 4
BITMAP
00
ENDCHAR
STARTCHAR quoteright
ENCODING 8217
SWIDTH 165 0
DWIDTH 1 0
BBX 1 1 0 4
BITMAP
80
ENDCHAR
STARTCHAR quotedblleft
ENCODING 8220
SWIDTH 1296 0
DWIDTH 9 0
BBX 9 4 0 -1
BITMAP
2200
5E00
FF80
FF00
ENDCHAR
STARTCHAR dagger
ENCODING 8224
SWIDTH 1295 0
DWIDTH 9 0
BBX 6 6 1 -1
BITMAP
30
C8
84
FC
FC
84
ENDCHAR
STARTCHAR bullet
ENCODING 8226
SWIDTH 1296 0
DWIDTH 9 0
BBX 7 7 1 -2
BITMAP
06
0A
74
FC
FC
F4
FC
ENDCHAR
STARTCHAR ellipsis
ENCODING 8230
SWIDTH 1296 0
DWIDTH 9 0
BBX 6 6 1 -1
BITMAP
3C
7C
1C
34
68
C0
ENDCHAR
STARTCHAR trademark
ENCODING 8482
SWIDTH 993 0
DWIDTH 7 0
BBX 7 7 0 -2
BITMAP
FE
C6
FE
D6
EE
E6
FE
ENDCHAR
STARTCHAR Omega.dup3
ENCODING 8486
SWIDTH 1296 0
DWIDTH 9 0
BBX 7 7 1 -2
BITMAP
3E
02
42
FA
42
02
3E
ENDCHAR
STARTCHAR partialdiff
ENCODING 8706
SWIDTH 1296 0
DWIDTH 9 0
BBX 5 7 2 -2
BITMAP
20
70
A8
28
20
20
20
ENDCHAR
STARTCHAR Delta.dup4
ENCODING 8710
SWIDTH 1296 0
DWIDTH 9 0
BBX 6 6 1 -1
BITMAP
80
C8
64
34
1C
7C
ENDCHAR
STARTCHAR periodcentered.dup5
ENCODING 8729
SWIDTH 261 0
DWIDTH 2 0
BBX 1 1 0 2
BITMAP
80
ENDCHAR
STARTCHAR radical
ENCODING 8730
SWIDTH 1296 0
DWIDTH 9 0
BBX 7 7 1 -2
BITMAP
10
BA
92
92
82
82
FE
ENDCHAR
STARTCHAR infinity
ENCODING 8734
SWIDTH 1296 0
DWIDTH 9 0
BBX 6 7 1 -2
BITMAP
80
B0
7C
7C
BC
40
84
ENDCHAR
STARTCHAR integral
ENCODING 8747
SWIDTH 1296 0
DWIDTH 9 0
BBX 7 7 1 -2
BITMAP
FE
82
92
92
92
38
10
ENDCHAR
STARTCHAR approxequal
ENCODING 8776
SWIDTH 1296 0
DWIDTH 9 0
BBX 7 7 1 -2
BITMAP
F8
80
84
9E
84
80
F8
ENDCHAR
STARTCHAR notequal
ENCODING 8800
SWIDTH 1295 0
DWIDTH 9 0
BBX 6 6 1 -1
BITMAP
48
CC
FC
CC
CC
78
ENDCHAR
STARTCHAR lessequal
ENCODING 8804
SWIDTH 1295 0
DWIDTH 9 0
BBX 7 7 1 -2
BITMAP
F8
80
98
9E
88
80
F8
ENDCHAR
STARTCHAR greaterequal
ENCODING 8805
SWIDTH 1296 0
DWIDTH 9 0
BBX 7 7 1 -2
BITMAP
FE
82
92
BA
DA
10
10
ENDCHAR
STARTCHAR approxequal.dup6
ENCODING 8946
SWIDTH 1296 0
DWIDTH 9 0
BBX 7 7 1 -2
BITMAP
F8
80
84
9E
84
80
F8
ENDCHAR
STARTCHAR .notdef
ENCODING -1
SWIDTH 500 0
DWIDTH 4 0
BBX 3 5 0 0
BITMAP
E0
A0
A0
A0
E0
ENDCHAR
STARTCHAR .null
ENCODING -1
SWIDTH 0 0
DWIDTH 0 0
BBX 1 1 0 0
BITMAP
00
ENDCHAR
STARTCHAR nonmarkingreturn
ENCODING -1
SWIDTH 199 0
DWIDTH 1 0
BBX 1 1 0 0
BITMAP
00
ENDCHAR
STARTCHAR glyph156
ENCODING -1
SWIDTH 333 0
DWIDTH 2 0
BBX 1 1 0 0
BITMAP
00
ENDCHAR
STARTCHAR summmation
ENCODING -1
SWIDTH 1295 0
DWIDTH 9 0
BBX 5 7 2 -2
BITMAP
70
A8
88
F8
A8
70
88
ENDCHAR
ENDFONT
